<svg xmlns="http://www.w3.org/2000/svg" viewBox="0 0 900 600" role="img" aria-label="Airshow fighter jet">
  <defs>
    <linearGradient id="sky2" x1="0" y1="0" x2="0" y2="1">
      <stop offset="0" stop-color="#fbbf24"/>
      <stop offset="1" stop-color="#fde68a"/>
    </linearGradient>
    <linearGradient id="body2" x1="0" y1="0" x2="1" y2="1">
      <stop offset="0" stop-color="#94a3b8"/>
      <stop offset="1" stop-color="#334155"/>
    </linearGradient>
  </defs>
  <rect width="900" height="600" fill="url(#sky2)"/>
  <circle cx="150" cy="120" r="40" fill="#fef3c7" opacity="0.9"/>
  <g transform="translate(450,300)">
    <path d="M-200 0 L-70 -20 L50 -6 L200 0 L50 6 L-70 20 Z" fill="url(#body2)" stroke="#0f172a" stroke-width="2"/>
    <path d="M-45 -6 L-160 -80 L-70 -20 Z" fill="#475569" stroke="#0f172a" stroke-width="2"/>
    <path d="M-45 6 L-160 80 L-70 20 Z" fill="#475569" stroke="#0f172a" stroke-width="2"/>
    <path d="M70 -4 L180 -50 L200 0 Z" fill="#64748b" stroke="#0f172a" stroke-width="2"/>
    <path d="M70 4 L180 50 L200 0 Z" fill="#64748b" stroke="#0f172a" stroke-width="2"/>
    <circle cx="22" cy="0" r="7" fill="#ef4444" stroke="#0f172a" stroke-width="2"/>
    <path d="M-70 0 L-140 -4 L-140 4 Z" fill="#0f172a"/>
  </g>
  <path d="M120 500 Q300 380 520 410 Q700 430 820 380" stroke="#f59e0b" stroke-width="4" fill="none" opacity="0.7"/>
</svg>
