<svg xmlns="http://www.w3.org/2000/svg" viewBox="0 0 900 600" role="img" aria-label="AK-47 assault rifle">
  <defs>
    <linearGradient id="bg3" x1="0" y1="0" x2="0" y2="1">
      <stop offset="0" stop-color="#292524"/>
      <stop offset="1" stop-color="#1c1917"/>
    </linearGradient>
    <linearGradient id="wood3" x1="0" y1="0" x2="0" y2="1">
      <stop offset="0" stop-color="#92400e"/>
      <stop offset="1" stop-color="#5b2d0e"/>
    </linearGradient>
  </defs>
  <rect width="900" height="600" fill="url(#bg3)"/>
  <g transform="translate(80,300)">
    <rect x="0" y="-16" width="200" height="14" rx="4" fill="url(#wood3)" stroke="#451a03" stroke-width="2"/>
    <rect x="200" y="-16" width="360" height="14" rx="4" fill="#94a3b8" stroke="#334155" stroke-width="2"/>
    <rect x="560" y="-14" width="100" height="10" rx="4" fill="#64748b" stroke="#334155" stroke-width="2"/>
    <path d="M40 -2 L40 42 L95 42 L95 -2 Z" fill="#1f2937" stroke="#374151" stroke-width="2"/>
    <path d="M95 8 L95 42 L150 42 L150 8 Z" fill="#334155" stroke="#374151" stroke-width="2"/>
    <path d="M330 -16 L330 26 L360 26 L360 -16 Z" fill="#111827" stroke="#374151" stroke-width="2"/>
    <path d="M360 6 L360 40 L390 40 L390 6 Z" fill="#1f2937"/>
    <path d="M560 -14 L560 26 L585 26 L585 -14 Z" fill="#1f2937" stroke="#374151" stroke-width="2"/>
    <rect x="620" y="-20" width="18" height="40" rx="4" fill="#64748b" stroke="#334155" stroke-width="2"/>
    <path d="M620 -20 L600 -20 L600 -6 L620 -6 Z" fill="#1f2937"/>
    <path d="M95 42 Q150 70 210 70 Q270 70 320 42" fill="none" stroke="#334155" stroke-width="4"/>
    <path d="M95 42 Q150 66 210 66 Q270 66 320 42 Z" fill="#1f2937"/>
  </g>
</svg>
